<svg width="21" height="28" viewBox="0 0 21 28" fill="none" xmlns="http://www.w3.org/2000/svg">
<path d="M12.6967 26.0738C11.7577 27.7002 9.41017 27.7002 8.47115 26.0738L1.94729 14.7741C1.00827 13.1477 2.18204 11.1146 4.06007 11.1146H17.1078C18.9858 11.1146 20.1596 13.1477 19.2206 14.7741L12.6967 26.0738Z" fill="#008597"/>
<path d="M20.2186 10.4909C20.2186 15.8353 15.8861 20.1678 10.5416 20.1678C5.19718 20.1678 0.864655 15.8353 0.864655 10.4909C0.864655 5.14643 5.19718 0.813904 10.5416 0.813904C15.8861 0.813904 20.2186 5.14643 20.2186 10.4909Z" fill="#008597"/>
<path d="M10.6187 5.76184C8.01182 5.76184 6.17816 7.36068 6.17816 9.996C6.17816 12.6313 8.00077 14.0537 10.4641 14.0537C11.4218 14.0537 12.2756 13.8378 12.972 13.4335C13.0438 13.5024 13.122 13.5608 13.2039 13.6085C13.3977 13.7216 13.6154 13.7781 13.8331 13.7781C13.84 13.7781 13.8474 13.7781 13.8543 13.7781C14.2855 13.7252 14.6758 13.4381 14.7122 13.411L13.939 12.6391C14.5534 11.9298 14.905 10.9741 14.905 9.82004C14.905 7.19574 13.082 5.7623 10.6187 5.7623V5.76184ZM11.9797 10.8358C11.8365 10.7812 11.6856 10.7541 11.5346 10.7541C11.5254 10.7541 11.5157 10.7541 11.5065 10.7545C11.1185 10.8014 10.7641 11.0348 10.6744 11.0982C10.6744 11.0982 10.6741 11.0983 10.6735 11.0986C10.6661 11.1051 10.6592 11.112 10.6523 11.1189L11.709 12.1737C11.4458 12.867 11.038 13.1422 10.5856 13.1422C9.80543 13.1422 9.06856 12.2675 9.06856 9.86368C9.06856 7.45992 9.89288 6.67336 10.5193 6.67336C11.1457 6.67336 12.0142 7.54813 12.0142 9.95189C12.0142 10.2749 12.0022 10.5689 11.9797 10.8358Z" fill="white"/>
</svg>
